# xmcd
# 
# Track frame offsets:
#     150
#     19650
#     41527
#     60900
#     80878
#     99012
#     119504
#     140587
#     159464
#     178915
# 
# Disc length: 2604
# 
# Revision: 1
# Processed by: cddbd v1.5.2PL0 Copyright (c) Steve Scherf et al.
# Submitted via: fre:ac v1.0.27
# 
DISCID=7d0a2a0a
DTITLE=孫淑媚 - May同名專輯／手下留情
DYEAR=1999
DGENRE=Pop
TTITLE0=手下留情
TTITLE1=阮想欲飛
TTITLE2=憨憨為你等
TTITLE3=感情的玩物
TTITLE4=鐵枝路的兩條線
TTITLE5=沒伴
TTITLE6=情深緣薄
TTITLE7=石頭心
TTITLE8=愛你是我的快樂
TTITLE9=我嘛不知
EXTD=
EXTT0=
EXTT1=¨¿·Q±ý­¸
EXTT2=
EXTT3=
EXTT4=
EXTT5=
EXTT6=
EXTT7=
EXTT8=
EXTT9=
PLAYORDER=
